<?xml version="1.0" standalone="no"?>
<!DOCTYPE svg PUBLIC "-//W3C//DTD SVG 20010904//EN"
 "http://www.w3.org/TR/2001/REC-SVG-20010904/DTD/svg10.dtd">
<svg version="1.0" xmlns="http://www.w3.org/2000/svg"
 width="595.000000pt" height="595.000000pt" viewBox="0 0 595.000000 595.000000"
 preserveAspectRatio="xMidYMid meet">
<metadata>
Created by potrace 1.14, written by Peter Selinger 2001-2017
</metadata>
<g transform="translate(0.000000,595.000000) scale(0.100000,-0.100000)"
fill="#000000" stroke="none">
<path d="M1212 5548 c-31 -39 -123 -205 -154 -278 -57 -133 -80 -229 -80 -330
0 -39 8 -115 12 -115 1 0 3 -8 5 -18 8 -41 51 -113 100 -165 l53 -57 -60 -70
c-32 -39 -93 -118 -134 -177 -42 -60 -77 -108 -80 -108 -2 0 0 10 5 23 9 23 7
269 -3 325 -9 54 -53 177 -82 228 -42 76 -123 174 -144 174 -12 0 -108 -213
-125 -280 -24 -90 -28 -211 -10 -288 29 -122 91 -210 206 -291 l66 -47 -49
-98 c-26 -54 -64 -137 -83 -185 -19 -47 -35 -83 -36 -78 -1 4 -2 10 -3 15 -1
4 -5 29 -10 56 -9 60 -65 184 -107 239 -50 65 -127 135 -208 189 -75 49 -92
54 -97 27 -2 -7 -6 -27 -9 -44 -4 -16 -10 -70 -14 -120 -18 -247 94 -457 301
-559 l74 -37 -11 -67 c-6 -37 -11 -118 -10 -179 2 -62 0 -113 -4 -113 -4 0
-15 16 -26 36 -20 37 -23 41 -108 140 -84 98 -195 172 -301 200 -34 9 -54 10
-61 3 -16 -16 -15 -202 2 -265 45 -173 151 -286 330 -354 32 -12 63 -23 68
-24 31 -8 91 -19 109 -21 12 -1 26 -3 33 -4 6 0 24 -40 38 -88 29 -97 108
-299 137 -350 10 -18 16 -33 14 -33 -3 0 -26 19 -81 68 -17 15 -57 47 -90 72
-33 25 -62 48 -63 53 -2 4 -8 7 -12 7 -5 0 -28 13 -52 29 -131 87 -252 130
-365 128 -45 -1 -84 -5 -88 -8 -8 -9 40 -152 73 -214 76 -145 202 -255 330
-289 82 -21 214 -12 315 22 78 25 90 27 95 13 17 -45 235 -386 269 -419 29
-29 -3 -23 -118 21 -236 92 -254 98 -344 117 -59 12 -217 10 -277 -4 -103 -24
-101 -21 -75 -81 12 -27 27 -56 34 -63 7 -7 13 -17 13 -21 0 -15 118 -124 166
-152 91 -54 201 -81 344 -84 147 -2 220 24 293 106 26 29 48 51 50 48 24 -32
87 -108 102 -124 66 -72 168 -175 205 -207 40 -36 35 -52 -9 -28 -10 5 -40 12
-67 16 -27 3 -52 8 -55 10 -12 7 -147 17 -214 16 -99 -2 -162 -13 -236 -41
-61 -24 -146 -78 -159 -101 -10 -18 -8 -20 70 -80 25 -19 47 -38 50 -41 11
-15 136 -72 183 -85 70 -18 198 -12 269 14 75 27 158 83 229 155 53 54 60 57
81 46 13 -7 25 -15 28 -19 12 -18 174 -119 263 -165 53 -27 97 -52 97 -55 0
-3 -30 -6 -67 -7 -38 -1 -86 -4 -108 -7 -22 -3 -60 -8 -85 -11 -88 -11 -268
-68 -305 -96 -87 -66 -129 -129 -133 -196 -3 -37 11 -47 78 -58 25 -4 54 -9
65 -12 11 -2 65 -7 121 -10 255 -14 455 87 545 273 17 34 32 64 35 67 3 3 20
1 37 -5 125 -39 260 -60 422 -68 38 -1 39 -2 15 -12 -38 -16 -222 -107 -245
-121 -132 -81 -249 -187 -285 -257 -21 -42 -35 -100 -23 -101 4 0 17 -3 28 -6
11 -3 70 -6 130 -8 177 -5 286 35 396 144 75 75 137 188 167 306 l18 70 155 1
156 2 17 -73 c23 -96 90 -229 146 -289 62 -66 141 -115 228 -142 63 -20 92
-23 196 -20 69 1 130 7 143 14 21 12 21 14 7 53 -22 64 -49 102 -117 166 -98
92 -244 181 -407 249 -30 13 -48 24 -40 24 8 0 50 2 92 4 69 4 119 10 183 22
11 2 31 6 45 9 14 3 56 14 94 25 38 11 71 19 72 17 1 -1 16 -31 33 -67 36 -73
85 -132 151 -179 56 -41 96 -58 184 -81 115 -31 420 -13 467 27 13 11 15 22 8
60 -10 52 -23 76 -68 120 -96 97 -328 162 -593 167 -27 0 -48 2 -48 3 0 2 39
23 88 48 94 48 164 87 172 95 3 3 30 22 60 43 30 20 65 45 78 54 22 16 24 15
80 -42 65 -66 144 -121 222 -155 46 -20 72 -24 160 -25 94 0 113 3 175 29 72
30 151 80 220 139 l40 35 -38 34 c-37 35 -130 86 -169 93 -11 2 -27 6 -36 9
-93 27 -288 22 -436 -10 -39 -8 -82 -17 -95 -20 -20 -4 -15 3 24 38 98 87 231
229 284 304 13 19 27 34 30 34 3 0 16 -15 28 -34 28 -43 100 -101 138 -111 17
-5 37 -10 45 -12 37 -11 201 -8 260 3 100 20 101 20 162 47 104 46 197 131
251 229 40 75 37 91 -20 107 -113 32 -340 20 -443 -22 -26 -11 -129 -48 -134
-49 -3 0 -54 -20 -113 -43 -59 -24 -110 -42 -111 -40 -2 2 14 27 35 57 46 62
163 238 163 245 0 2 15 27 33 56 18 29 38 64 46 78 l13 26 70 -24 c157 -54
301 -52 423 8 59 29 175 128 175 149 0 5 4 10 9 10 9 0 99 167 106 198 3 9 10
36 16 60 6 23 9 46 5 50 -4 3 -38 8 -77 10 -156 9 -370 -98 -604 -302 -38 -34
-66 -54 -63 -46 4 8 23 53 43 100 36 82 103 266 110 303 10 49 16 55 63 62 97
14 179 38 247 72 53 27 125 82 162 123 36 41 82 133 99 201 19 74 23 254 6
271 -27 27 -217 -66 -307 -150 -48 -44 -119 -132 -163 -200 l-40 -62 2 127 c2
71 -2 158 -8 195 l-12 67 40 18 c58 26 148 86 189 125 68 66 126 180 145 281
11 64 5 225 -13 295 l-17 71 -56 -36 c-165 -105 -257 -206 -314 -345 -15 -38
-30 -91 -34 -118 -7 -53 -18 -64 -29 -27 -11 36 -64 156 -106 240 -22 43 -39
81 -39 85 0 4 21 20 48 37 74 47 150 132 187 210 54 114 63 211 32 365 -17 81
-80 231 -120 285 -15 20 -16 19 -39 -6 -73 -82 -121 -157 -154 -246 -23 -62
-28 -79 -44 -178 -9 -58 -6 -256 5 -300 5 -24 -2 -17 -34 30 -63 94 -137 189
-219 285 l-30 35 39 33 c48 41 93 105 115 163 23 62 27 227 8 304 -8 33 -19
74 -23 91 -22 84 -188 384 -212 384 -16 0 -85 -156 -110 -245 -32 -119 -34
-291 -4 -410 12 -49 34 -116 48 -149 33 -71 33 -73 4 -44 -48 51 -229 182
-297 216 -21 11 -28 25 -37 75 -20 103 -78 204 -164 287 -47 45 -181 128 -218
135 -11 2 -28 8 -38 13 -28 15 -166 42 -250 49 l-74 6 6 -49 c15 -121 78 -254
157 -334 98 -99 250 -170 413 -195 22 -3 53 -8 68 -11 36 -6 179 -92 280 -168
42 -32 77 -59 77 -61 0 -2 -15 1 -32 6 -68 18 -126 17 -238 -4 -76 -14 -294
-151 -335 -210 -15 -21 -14 -23 27 -41 87 -38 209 -64 308 -64 148 0 269 39
389 126 l43 31 40 -47 c22 -26 51 -59 64 -74 13 -15 56 -76 96 -135 40 -59 77
-111 83 -115 27 -20 -11 -4 -77 31 -118 63 -185 82 -291 81 -78 0 -140 -13
-216 -47 -58 -25 -181 -109 -181 -123 0 -20 182 -92 295 -116 53 -11 258 -13
315 -3 30 6 90 21 133 36 43 14 80 23 82 22 21 -24 131 -268 175 -391 29 -82
26 -95 -12 -53 -36 39 -161 135 -175 135 -7 0 -13 3 -13 8 0 8 -51 32 -140 66
-81 30 -281 29 -360 -2 -88 -35 -86 -31 -52 -99 71 -140 211 -223 422 -249 59
-8 252 -4 315 5 33 5 64 5 69 1 35 -33 25 -356 -16 -535 -10 -47 -12 -48 -21
-25 -75 181 -148 276 -262 345 -83 50 -144 67 -253 71 -138 4 -141 1 -92 -99
80 -160 238 -272 503 -356 31 -10 59 -16 98 -20 15 -2 -81 -275 -134 -384
l-23 -48 -12 71 c-31 179 -146 302 -346 370 -68 23 -146 35 -146 23 0 -4 11
-45 24 -90 64 -215 189 -376 359 -459 46 -23 56 -32 51 -47 -6 -18 -114 -199
-158 -264 l-23 -34 -6 68 c-8 89 -12 104 -59 202 -54 112 -194 206 -318 214
l-34 2 2 -96 c7 -276 42 -399 142 -501 20 -20 58 -48 83 -61 l47 -23 -71 -85
c-39 -46 -109 -122 -156 -169 -80 -81 -83 -83 -68 -45 52 123 62 253 29 352
-32 94 -113 195 -209 260 -44 30 -47 27 -66 -61 -25 -122 -33 -194 -32 -296 0
-171 26 -258 105 -362 l28 -36 -37 -30 c-70 -55 -183 -123 -286 -173 -91 -44
-141 -62 -112 -41 6 4 32 34 57 67 83 108 120 203 124 321 4 122 -31 222 -114
327 l-30 38 -20 -28 c-42 -60 -74 -136 -99 -233 -25 -97 -35 -301 -19 -385 4
-16 9 -52 11 -79 3 -27 8 -52 10 -56 6 -10 -54 -33 -115 -45 -12 -2 -29 -6
-38 -9 -16 -5 -53 -12 -117 -22 -48 -8 -248 -13 -278 -7 -26 5 -22 9 60 64
133 88 204 161 255 261 26 52 32 75 32 133 1 38 -2 82 -6 96 -7 30 -40 95 -62
123 -15 19 -16 18 -53 -6 -113 -76 -207 -216 -263 -391 -20 -65 -23 -77 -44
-192 l-12 -70 -115 -3 c-100 -2 -142 -2 -186 1 -6 0 -11 7 -11 16 2 44 -38
217 -69 301 -56 150 -149 276 -253 343 l-28 18 -25 -33 c-49 -64 -72 -173 -56
-251 25 -115 143 -258 292 -352 48 -30 73 -51 66 -56 -13 -8 -228 -4 -299 5
-25 4 -81 15 -125 26 -44 11 -91 23 -104 26 -36 8 -43 14 -36 33 4 9 8 25 10
36 1 11 6 45 10 75 10 66 10 256 0 325 -10 71 -60 214 -98 280 l-32 57 -29
-34 c-37 -43 -103 -182 -111 -233 -14 -86 -6 -176 25 -258 23 -60 87 -166 128
-210 14 -15 22 -27 18 -27 -35 0 -274 132 -383 212 l-53 38 35 46 c88 115 116
268 91 508 -4 38 -9 72 -11 75 -1 3 -6 24 -9 46 -4 22 -11 55 -17 73 l-11 32
-30 -17 c-37 -22 -148 -129 -148 -143 0 -5 -4 -10 -8 -10 -10 0 -38 -57 -62
-125 -17 -50 -21 -181 -6 -232 3 -13 8 -32 10 -42 3 -10 12 -33 20 -50 32 -61
14 -52 -77 40 -91 92 -207 226 -207 240 0 3 15 12 33 20 111 45 208 198 223
353 3 28 7 65 9 83 6 43 8 223 3 229 -3 2 -29 -1 -59 -7 -136 -29 -244 -114
-304 -241 -39 -84 -46 -110 -46 -192 0 -32 -3 -55 -7 -50 -32 39 -192 301
-192 314 0 4 24 17 53 30 28 13 58 30 65 37 7 7 17 13 22 13 5 0 40 31 78 68
63 62 152 191 152 220 0 7 4 12 8 12 5 0 9 6 10 13 1 6 13 52 28 100 14 49 23
91 20 94 -11 11 -148 -28 -225 -64 -96 -46 -180 -127 -221 -215 -17 -36 -32
-79 -33 -97 -1 -17 -5 -31 -8 -31 -3 0 -4 -13 -3 -30 3 -41 -9 -38 -29 8 -9
20 -26 60 -38 87 -33 76 -99 268 -99 288 0 9 8 17 18 17 9 0 53 11 97 24 261
77 430 203 509 383 30 67 24 71 -101 68 -84 -2 -121 -7 -168 -25 -77 -29 -149
-76 -202 -131 -50 -52 -125 -180 -143 -244 -15 -53 -26 -57 -33 -12 -3 17 -8
44 -11 60 -13 59 -17 84 -23 142 -8 69 -7 268 0 305 3 14 6 33 6 43 1 15 7 17
39 12 88 -16 312 -22 362 -10 14 3 41 7 61 10 95 13 209 68 277 136 41 40 111
155 100 164 -16 13 -83 40 -128 51 -210 50 -431 -26 -632 -217 -26 -26 -48
-46 -48 -44 0 1 13 40 29 86 36 104 85 218 140 327 37 74 43 81 61 72 27 -15
138 -49 185 -58 52 -9 268 -8 323 2 103 18 302 94 302 116 0 11 -96 81 -155
112 -107 56 -274 74 -384 41 -58 -17 -163 -66 -202 -94 -17 -12 -32 -20 -33
-18 -11 12 254 372 282 383 7 3 34 -11 60 -31 56 -43 146 -86 226 -107 82 -21
251 -19 330 5 33 10 62 18 64 17 8 -3 112 46 112 53 0 11 -117 107 -179 147
-67 43 -157 79 -219 87 -26 4 -56 8 -68 10 -12 2 -52 -3 -90 -10 -38 -7 -70
-12 -72 -10 -2 2 12 13 30 26 18 13 37 29 41 36 4 7 13 13 18 13 6 0 17 7 26
15 23 23 226 142 243 142 165 2 385 95 487 205 39 43 100 126 102 141 0 4 8
23 16 43 18 45 32 96 40 153 l6 44 -78 -6 c-299 -23 -519 -151 -621 -360 -22
-45 -43 -101 -47 -125 -4 -24 -12 -47 -18 -53 -17 -14 -118 -79 -123 -79 -3 0
-10 -4 -17 -10 -97 -77 -178 -140 -181 -140 -5 0 17 63 24 70 6 6 6 7 36 120
17 68 21 107 19 195 -2 107 -5 125 -26 210 -19 77 -94 245 -108 245 -5 0 -13
-6 -19 -12z"/>
</g>
</svg>
